{
  "accessors": [
    {
      "bufferView": 2,
      "componentType": 5126,
      "count": 30,
      "max": [
        0.05089106783270836,
        0.2271096408367157,
        0.2271096408367157
      ],
      "min": [
        -0.05089106783270836,
        -0.2271096408367157,
        -0.2271096408367157
      ],
      "type": "VEC3"
    },
    {
      "bufferView": 2,
      "byteOffset": 360,
      "componentType": 5126,
      "count": 30,
      "max": [
        1.0,
        1.0,
        1.0
      ],
      "min": [
        -1.0,
        -1.0,
        -1.0
      ],
      "type": "VEC3"
    },
    {
      "bufferView": 1,
      "componentType": 5126,
      "count": 30,
      "max": [
        0.8429526090621948,
        0.998131513595581
      ],
      "min": [
        0.0018684864044189453,
        0.0018684864044189453
      ],
      "type": "VEC2"
    },
    {
      "bufferView": 1,
      "byteOffset": 240,
      "componentType": 5126,
      "count": 30,
      "max": [
        0.8429526090621948,
        0.998131513595581
      ],
      "min": [
        0.0018684864044189453,
        0.0018684864044189453
      ],
      "type": "VEC2"
    },
    {
      "bufferView": 1,
      "byteOffset": 480,
      "componentType": 5126,
      "count": 30,
      "max": [
        0.8429526090621948,
        0.998131513595581
      ],
      "min": [
        0.0018684864044189453,
        0.0018684864044189453
      ],
      "type": "VEC2"
    },
    {
      "bufferView": 0,
      "componentType": 5125,
      "count": 48,
      "type": "SCALAR"
    },
    {
      "bufferView": 2,
      "byteOffset": 720,
      "componentType": 5126,
      "count": 1772,
      "max": [
        0.05883290246129036,
        0.2477777600288391,
        0.2477777600288391
      ],
      "min": [
        -0.05883290246129036,
        -0.2477777600288391,
        -0.2477777600288391
      ],
      "type": "VEC3"
    },
    {
      "bufferView": 2,
      "byteOffset": 21984,
      "componentType": 5126,
      "count": 1772,
      "max": [
        1.0,
        0.9993218779563904,
        0.9993218779563904
      ],
      "min": [
        -1.0,
        -0.999060332775116,
        -0.9990482926368713
      ],
      "type": "VEC3"
    },
    {
      "bufferView": 1,
      "byteOffset": 720,
      "componentType": 5126,
      "count": 1772,
      "max": [
        0.9973574876785278,
        0.9631713628768921
      ],
      "min": [
        0.002642575651407242,
        0.002642586827278137
      ],
      "type": "VEC2"
    },
    {
      "bufferView": 1,
      "byteOffset": 14896,
      "componentType": 5126,
      "count": 1772,
      "max": [
        0.9973574876785278,
        0.9631713628768921
      ],
      "min": [
        0.002642575651407242,
        0.002642586827278137
      ],
      "type": "VEC2"
    },
    {
      "bufferView": 1,
      "byteOffset": 29072,
      "componentType": 5126,
      "count": 1772,
      "max": [
        0.9973574876785278,
        0.9631713628768921
      ],
      "min": [
        0.002642575651407242,
        0.002642586827278137
      ],
      "type": "VEC2"
    },
    {
      "bufferView": 0,
      "byteOffset": 192,
      "componentType": 5125,
      "count": 9000,
      "type": "SCALAR"
    },
    {
      "bufferView": 2,
      "byteOffset": 43248,
      "componentType": 5126,
      "count": 583,
      "max": [
        0.1183449998497963,
        0.27456727623939514,
        0.27456727623939514
      ],
      "min": [
        -0.1183449998497963,
        -0.27456727623939514,
        -0.27456727623939514
      ],
      "type": "VEC3"
    },
    {
      "bufferView": 2,
      "byteOffset": 50244,
      "componentType": 5126,
      "count": 583,
      "max": [
        1.0,
        0.9993218183517456,
        0.9993218183517456
      ],
      "min": [
        -1.0,
        -0.9993218779563904,
        -0.9993218183517456
      ],
      "type": "VEC3"
    },
    {
      "bufferView": 1,
      "byteOffset": 43248,
      "componentType": 5126,
      "count": 583,
      "max": [
        0.9971907734870911,
        0.9863612055778503
      ],
      "min": [
        0.002809196710586548,
        0.002809196710586548
      ],
      "type": "VEC2"
    },
    {
      "bufferView": 1,
      "byteOffset": 47912,
      "componentType": 5126,
      "count": 583,
      "max": [
        0.9971907734870911,
        0.9863612055778503
      ],
      "min": [
        0.002809196710586548,
        0.002809196710586548
      ],
      "type": "VEC2"
    },
    {
      "bufferView": 1,
      "byteOffset": 52576,
      "componentType": 5126,
      "count": 583,
      "max": [
        0.9971907734870911,
        0.9863612055778503
      ],
      "min": [
        0.002809196710586548,
        0.002809196710586548
      ],
      "type": "VEC2"
    },
    {
      "bufferView": 0,
      "byteOffset": 36192,
      "componentType": 5125,
      "count": 1605,
      "type": "SCALAR"
    },
    {
      "bufferView": 2,
      "byteOffset": 57240,
      "componentType": 5126,
      "count": 2284,
      "max": [
        0.10537955909967422,
        0.32307004928588867,
        0.32307004928588867
      ],
      "min": [
        -0.10537955909967422,
        -0.32307004928588867,
        -0.32307004928588867
      ],
      "type": "VEC3"
    },
    {
      "bufferView": 2,
      "byteOffset": 84648,
      "componentType": 5126,
      "count": 2284,
      "max": [
        1.0,
        1.0,
        1.0
      ],
      "min": [
        -1.0,
        -1.0,
        -1.0
      ],
      "type": "VEC3"
    },
    {
      "bufferView": 1,
      "byteOffset": 57240,
      "componentType": 5126,
      "count": 2284,
      "max": [
        0.9954959154129028,
        0.9903473258018494
      ],
      "min": [
        0.004504084587097168,
        0.004504084587097168
      ],
      "type": "VEC2"
    },
    {
      "bufferView": 1,
      "byteOffset": 75512,
      "componentType": 5126,
      "count": 2284,
      "max": [
        0.9954959154129028,
        0.9903473258018494
      ],
      "min": [
        0.004504084587097168,
        0.004504084587097168
      ],
      "type": "VEC2"
    },
    {
      "bufferView": 1,
      "byteOffset": 93784,
      "componentType": 5126,
      "count": 2284,
      "max": [
        0.9954959154129028,
        0.9903473258018494
      ],
      "min": [
        0.004504084587097168,
        0.004504084587097168
      ],
      "type": "VEC2"
    },
    {
      "bufferView": 0,
      "byteOffset": 42612,
      "componentType": 5125,
      "count": 4839,
      "type": "SCALAR"
    }
  ],
  "asset": {
    "extras": {
      "author": "Christian.Bittner (https://sketchfab.com/Christian.Bittner)",
      "license": "CC-BY-4.0 (http://creativecommons.org/licenses/by/4.0/)",
      "source": "https://sketchfab.com/3d-models/hardsurface-window-sci-fi-69e35d9a26c94e95bba66b90aaf97258",
      "title": "Hardsurface-Window Sci-Fi"
    },
    "generator": "Sketchfab-12.65.0",
    "version": "2.0"
  },
  "bufferViews": [
    {
      "buffer": 0,
      "byteLength": 61968,
      "name": "floatBufferViews",
      "target": 34963
    },
    {
      "buffer": 0,
      "byteLength": 112056,
      "byteOffset": 61968,
      "byteStride": 8,
      "name": "floatBufferViews",
      "target": 34962
    },
    {
      "buffer": 0,
      "byteLength": 112056,
      "byteOffset": 174024,
      "byteStride": 12,
      "name": "floatBufferViews",
      "target": 34962
    }
  ],
  "buffers": [
    {
      "byteLength": 286080,
      "uri": "scene.bin"
    }
  ],
  "images": [
    {
      "uri": "textures/Glass_bake_preview.001_baseColor.png"
    },
    {
      "uri": "textures/Glass_bake_preview.001_metallicRoughness.png"
    },
    {
      "uri": "textures/Rubber_bake_preview.001_baseColor.png"
    },
    {
      "uri": "textures/Rubber_bake_preview.001_metallicRoughness.png"
    },
    {
      "uri": "textures/WindowInside_bake_preview.001_baseColor.png"
    },
    {
      "uri": "textures/WindowInside_bake_preview.001_metallicRoughness.png"
    },
    {
      "uri": "textures/WindowOutside_bake_preview.001_baseColor.png"
    },
    {
      "uri": "textures/WindowOutside_bake_preview.001_metallicRoughness.png"
    }
  ],
  "materials": [
    {
      "alphaMode": "BLEND",
      "doubleSided": true,
      "name": "Glass_bake_preview.001",
      "pbrMetallicRoughness": {
        "baseColorTexture": {
          "index": 0
        },
        "metallicFactor": 0.0,
        "metallicRoughnessTexture": {
          "index": 1
        }
      }
    },
    {
      "doubleSided": true,
      "name": "Rubber_bake_preview.001",
      "pbrMetallicRoughness": {
        "baseColorTexture": {
          "index": 2
        },
        "metallicFactor": 0.0,
        "metallicRoughnessTexture": {
          "index": 3
        }
      }
    },
    {
      "doubleSided": true,
      "name": "WindowInside_bake_preview.001",
      "pbrMetallicRoughness": {
        "baseColorTexture": {
          "index": 4
        },
        "metallicRoughnessTexture": {
          "index": 5,
          "texCoord": 1
        }
      }
    },
    {
      "doubleSided": true,
      "name": "WindowOutside_bake_preview.001",
      "pbrMetallicRoughness": {
        "baseColorTexture": {
          "index": 6
        },
        "metallicRoughnessTexture": {
          "index": 7,
          "texCoord": 1
        }
      }
    }
  ],
  "meshes": [
    {
      "name": "Object_0",
      "primitives": [
        {
          "attributes": {
            "NORMAL": 1,
            "POSITION": 0,
            "TEXCOORD_0": 2,
            "TEXCOORD_1": 3,
            "TEXCOORD_2": 4
          },
          "indices": 5,
          "material": 0,
          "mode": 4
        }
      ]
    },
    {
      "name": "Object_1",
      "primitives": [
        {
          "attributes": {
            "NORMAL": 7,
            "POSITION": 6,
            "TEXCOORD_0": 8,
            "TEXCOORD_1": 9,
            "TEXCOORD_2": 10
          },
          "indices": 11,
          "material": 1,
          "mode": 4
        }
      ]
    },
    {
      "name": "Object_2",
      "primitives": [
        {
          "attributes": {
            "NORMAL": 13,
            "POSITION": 12,
            "TEXCOORD_0": 14,
            "TEXCOORD_1": 15,
            "TEXCOORD_2": 16
          },
          "indices": 17,
          "material": 2,
          "mode": 4
        }
      ]
    },
    {
      "name": "Object_3",
      "primitives": [
        {
          "attributes": {
            "NORMAL": 19,
            "POSITION": 18,
            "TEXCOORD_0": 20,
            "TEXCOORD_1": 21,
            "TEXCOORD_2": 22
          },
          "indices": 23,
          "material": 3,
          "mode": 4
        }
      ]
    }
  ],
  "nodes": [
    {
      "children": [
        1
      ],
      "matrix": [
        1.0,
        0.0,
        0.0,
        0.0,
        0.0,
        2.220446049250313e-16,
        -1.0,
        0.0,
        0.0,
        1.0,
        2.220446049250313e-16,
        0.0,
        0.0,
        0.0,
        0.0,
        1.0
      ],
      "name": "Sketchfab_model"
    },
    {
      "children": [
        2
      ],
      "name": "root"
    },
    {
      "children": [
        3
      ],
      "matrix": [
        1.0,
        0.0,
        0.0,
        0.0,
        0.0,
        2.220446049250313e-16,
        1.0,
        0.0,
        0.0,
        -1.0,
        2.220446049250313e-16,
        0.0,
        0.0,
        0.0,
        0.0,
        1.0
      ],
      "name": "GLTF_SceneRootNode"
    },
    {
      "children": [
        4,
        5,
        6,
        7
      ],
      "name": "HardsurfaceWindow_0"
    },
    {
      "mesh": 0,
      "name": "Object_4"
    },
    {
      "mesh": 1,
      "name": "Object_5"
    },
    {
      "mesh": 2,
      "name": "Object_6"
    },
    {
      "mesh": 3,
      "name": "Object_7"
    }
  ],
  "samplers": [
    {
      "magFilter": 9729,
      "minFilter": 9987,
      "wrapS": 10497,
      "wrapT": 10497
    }
  ],
  "scene": 0,
  "scenes": [
    {
      "name": "Sketchfab_Scene",
      "nodes": [
        0
      ]
    }
  ],
  "textures": [
    {
      "sampler": 0,
      "source": 0
    },
    {
      "sampler": 0,
      "source": 1
    },
    {
      "sampler": 0,
      "source": 2
    },
    {
      "sampler": 0,
      "source": 3
    },
    {
      "sampler": 0,
      "source": 4
    },
    {
      "sampler": 0,
      "source": 5
    },
    {
      "sampler": 0,
      "source": 6
    },
    {
      "sampler": 0,
      "source": 7
    }
  ]
}
